<svg width="230" height="45" xmlns="http://www.w3.org/2000/svg">
 <g>
  <title>Layer 1</title>
  <g id="svg_1">
   <path id="svg_3" d="m388.6625,281.2c-1.6,-6.3 -6.5,-11.2 -12.8,-12.8c-11.8,-1.9 -23.8,-1.9 -35.6,0c-6.3,1.6 -11.2,6.5 -12.8,12.8c-1.9,11.8 -1.9,23.8 0,35.6c1.6,6.3 6.5,11.2 12.8,12.8c11.8,1.9 23.8,1.9 35.6,0c6.3,-1.6 11.2,-6.5 12.8,-12.8c1.9,-11.8 1.9,-23.8 0,-35.6zm-31.3,20.1c-2.8,4.4 -6.6,8.2 -11.1,11c-1.5,0.9 -3.3,0.9 -4.8,0.1s-2.4,-2.3 -2.5,-4c0,-1.7 0.9,-3.3 2.4,-4.1c2.3,-1.4 4.4,-3.2 6.1,-5.3c-1.8,-2.1 -3.8,-3.8 -6.1,-5.3c-2.3,-1.3 -3,-4.2 -1.7,-6.4s4.3,-2.9 6.5,-1.6c4.5,2.8 8.2,6.5 11.1,10.9c1,1.4 1,3.3 0.1,4.7zm15.9,9.7l-11.4,0c-2.1,0 -3.8,-1 -3.8,-3s1.7,-3 3.8,-3l11.4,0c2.1,0 3.8,1 3.8,3s-1.7,3 -3.8,3z" fill="#206bc4"/>
   <path id="svg_6" d="m429.8625,311.1c0.4,0 0.9,0.2 1.2,0.6s0.6,1 0.6,1.7c0,0.9 -0.5,1.6 -1.4,2.2s-2,0.9 -3.2,0.9c-2,0 -3.7,-0.4 -5,-1.3s-2,-2.6 -2,-5.4l0,-13.2l-2.2,0c-0.8,0 -1.4,-0.3 -1.9,-0.8s-0.9,-1.1 -0.9,-1.9c0,-0.7 0.3,-1.4 0.8,-1.8s1.2,-0.7 1.9,-0.7l2.2,0l0,-3.1c0,-0.8 0.3,-1.5 0.8,-2.1s1.3,-0.8 2.1,-0.8s1.5,0.3 2,0.8s0.8,1.3 0.8,2.1l0,3.1l3.4,0c0.8,0 1.4,0.3 1.9,0.8s0.8,1.2 0.8,1.9s-0.3,1.4 -0.8,1.8s-1.2,0.7 -1.9,0.7l-3.4,0l0,13c0,0.7 0.2,1.2 0.5,1.5s0.8,0.5 1.4,0.5c0.3,0 0.6,-0.1 1.1,-0.2c0.5,-0.2 0.8,-0.3 1.2,-0.3zm28,-20.7c0.8,0 1.5,0.3 2.1,0.8c0.5,0.5 0.8,1.2 0.8,2.1l0,20.3c0,0.8 -0.3,1.5 -0.8,2.1c-0.5,0.6 -1.2,0.8 -2.1,0.8s-1.5,-0.3 -2,-0.8s-0.8,-1.2 -0.8,-2.1c-0.8,0.9 -1.9,1.7 -3.2,2.4c-1.3,0.7 -2.8,1 -4.3,1c-2.2,0 -4.2,-0.6 -6,-1.7c-1.8,-1.1 -3.2,-2.7 -4.2,-4.7s-1.6,-4.3 -1.6,-6.9c0,-2.6 0.5,-4.9 1.5,-6.9s2.4,-3.6 4.2,-4.8c1.8,-1.1 3.7,-1.7 5.9,-1.7c1.5,0 3,0.3 4.3,0.8c1.3,0.6 2.5,1.3 3.4,2.1c0,-0.8 0.3,-1.5 0.8,-2.1c0.5,-0.5 1.2,-0.7 2,-0.7zm-9.7,21.3c2.1,0 3.8,-0.8 5.1,-2.3s2,-3.4 2,-5.7s-0.7,-4.2 -2,-5.8c-1.3,-1.5 -3,-2.3 -5.1,-2.3c-2,0 -3.7,0.8 -5,2.3c-1.3,1.5 -2,3.5 -2,5.8s0.6,4.2 1.9,5.7s3,2.3 5.1,2.3zm32.1,-21.3c2.2,0 4.2,0.6 6,1.7c1.8,1.1 3.2,2.7 4.2,4.7s1.6,4.3 1.6,6.9s-0.5,4.9 -1.5,6.9s-2.4,3.6 -4.2,4.8c-1.8,1.1 -3.7,1.7 -5.9,1.7c-1.5,0 -3,-0.3 -4.3,-0.9s-2.5,-1.4 -3.4,-2.3l0,0.3c0,0.8 -0.3,1.5 -0.8,2.1c-0.5,0.6 -1.2,0.8 -2.1,0.8s-1.5,-0.3 -2.1,-0.8c-0.5,-0.5 -0.8,-1.2 -0.8,-2.1l0,-30.3c0,-0.8 0.3,-1.5 0.8,-2.1c0.5,-0.6 1.2,-0.8 2.1,-0.8s1.5,0.3 2.1,0.8c0.5,0.6 0.8,1.3 0.8,2.1l0,10c0.8,-1 1.8,-1.8 3.2,-2.5c1.3,-0.7 2.8,-1 4.3,-1zm-0.7,21.3c2,0 3.7,-0.8 5,-2.3s2,-3.5 2,-5.8s-0.6,-4.2 -1.9,-5.7s-3,-2.3 -5.1,-2.3s-3.8,0.8 -5.1,2.3s-2,3.4 -2,5.7s0.7,4.2 2,5.8c1.3,1.6 3,2.3 5.1,2.3zm23.6,1.9c0,0.8 -0.3,1.5 -0.8,2.1s-1.3,0.8 -2.1,0.8s-1.5,-0.3 -2,-0.8s-0.8,-1.3 -0.8,-2.1l0,-29.7c0,-0.8 0.3,-1.5 0.8,-2.1s1.3,-0.8 2.1,-0.8s1.5,0.3 2,0.8s0.8,1.3 0.8,2.1l0,29.7zm29.3,-10.5c0,0.8 -0.3,1.4 -0.9,1.9c-0.6,0.5 -1.2,0.7 -2,0.7l-15.8,0c0.4,1.9 1.3,3.4 2.6,4.4c1.4,1.1 2.9,1.6 4.7,1.6c1.3,0 2.3,-0.1 3.1,-0.4c0.7,-0.2 1.3,-0.5 1.8,-0.8c0.4,-0.3 0.7,-0.5 0.9,-0.6c0.6,-0.3 1.1,-0.4 1.6,-0.4c0.7,0 1.2,0.2 1.7,0.7s0.7,1 0.7,1.7c0,0.9 -0.4,1.6 -1.3,2.4c-0.9,0.7 -2.1,1.4 -3.6,1.9s-3,0.8 -4.6,0.8c-2.7,0 -5,-0.6 -7,-1.7s-3.5,-2.7 -4.6,-4.6s-1.6,-4.2 -1.6,-6.6c0,-2.8 0.6,-5.2 1.7,-7.2s2.7,-3.7 4.6,-4.8s3.9,-1.7 6,-1.7s4.1,0.6 6,1.7s3.4,2.7 4.5,4.7c0.9,1.9 1.5,4.1 1.5,6.3zm-12.2,-7.5c-3.7,0 -5.9,1.7 -6.6,5.2l12.6,0l0,-0.3c-0.1,-1.3 -0.8,-2.5 -2,-3.5s-2.5,-1.4 -4,-1.4zm30.3,-5.2c1,0 1.8,0.3 2.4,0.8c0.7,0.5 1,1.2 1,1.9c0,1 -0.3,1.7 -0.8,2.2c-0.5,0.5 -1.1,0.8 -1.8,0.7c-0.5,0 -1,-0.1 -1.6,-0.3c-0.2,-0.1 -0.4,-0.1 -0.6,-0.2c-0.4,-0.1 -0.7,-0.1 -1.1,-0.1c-0.8,0 -1.6,0.3 -2.4,0.8s-1.4,1.3 -1.9,2.3s-0.7,2.3 -0.7,3.7l0,11.4c0,0.8 -0.3,1.5 -0.8,2.1c-0.5,0.6 -1.2,0.8 -2.1,0.8s-1.5,-0.3 -2.1,-0.8c-0.5,-0.6 -0.8,-1.3 -0.8,-2.1l0,-19.8c0,-0.8 0.3,-1.5 0.8,-2.1c0.5,-0.6 1.2,-0.8 2.1,-0.8s1.5,0.3 2.1,0.8c0.5,0.6 0.8,1.3 0.8,2.1l0,0.6c0.7,-1.3 1.8,-2.3 3.2,-3c1.3,-0.7 2.8,-1 4.3,-1z" fill-rule="evenodd" clip-rule="evenodd" fill="#4a4a4a"/>
  </g>
  <g id="svg_7">
   <path id="svg_8" d="m63.66251,284.2c-1.6,-6.3 -6.5,-11.2 -12.8,-12.8c-11.8,-1.9 -23.8,-1.9 -35.6,0c-6.3,1.6 -11.2,6.5 -12.8,12.8c-1.9,11.8 -1.9,23.8 0,35.6c1.6,6.3 6.5,11.2 12.8,12.8c11.8,1.9 23.8,1.9 35.6,0c6.3,-1.6 11.2,-6.5 12.8,-12.8c1.9,-11.8 1.9,-23.8 0,-35.6zm-31.3,20.1c-2.8,4.4 -6.6,8.2 -11.1,11c-1.5,0.9 -3.3,0.9 -4.8,0.1s-2.4,-2.3 -2.5,-4c0,-1.7 0.9,-3.3 2.4,-4.1c2.3,-1.4 4.4,-3.2 6.1,-5.3c-1.8,-2.1 -3.8,-3.8 -6.1,-5.3c-2.3,-1.3 -3,-4.2 -1.7,-6.4s4.3,-2.9 6.5,-1.6c4.5,2.8 8.2,6.5 11.1,10.9c1,1.4 1,3.3 0.1,4.7zm15.9,9.7l-11.4,0c-2.1,0 -3.8,-1 -3.8,-3s1.7,-3 3.8,-3l11.4,0c2.1,0 3.8,1 3.8,3s-1.7,3 -3.8,3z" fill="#206bc4"/>
   <path id="svg_9" d="m104.86251,314.1c0.4,0 0.9,0.2 1.2,0.6s0.6,1 0.6,1.7c0,0.9 -0.5,1.6 -1.4,2.2s-2,0.9 -3.2,0.9c-2,0 -3.7,-0.4 -5,-1.3s-2,-2.6 -2,-5.4l0,-13.2l-2.2,0c-0.8,0 -1.4,-0.3 -1.9,-0.8s-0.9,-1.1 -0.9,-1.9c0,-0.7 0.3,-1.4 0.8,-1.8s1.2,-0.7 1.9,-0.7l2.2,0l0,-3.1c0,-0.8 0.3,-1.5 0.8,-2.1s1.3,-0.8 2.1,-0.8s1.5,0.3 2,0.8s0.8,1.3 0.8,2.1l0,3.1l3.4,0c0.8,0 1.4,0.3 1.9,0.8s0.8,1.2 0.8,1.9s-0.3,1.4 -0.8,1.8s-1.2,0.7 -1.9,0.7l-3.4,0l0,13c0,0.7 0.2,1.2 0.5,1.5s0.8,0.5 1.4,0.5c0.3,0 0.6,-0.1 1.1,-0.2c0.5,-0.2 0.8,-0.3 1.2,-0.3zm28,-20.7c0.8,0 1.5,0.3 2.1,0.8c0.5,0.5 0.8,1.2 0.8,2.1l0,20.3c0,0.8 -0.3,1.5 -0.8,2.1c-0.5,0.6 -1.2,0.8 -2.1,0.8s-1.5,-0.3 -2,-0.8s-0.8,-1.2 -0.8,-2.1c-0.8,0.9 -1.9,1.7 -3.2,2.4c-1.3,0.7 -2.8,1 -4.3,1c-2.2,0 -4.2,-0.6 -6,-1.7c-1.8,-1.1 -3.2,-2.7 -4.2,-4.7s-1.6,-4.3 -1.6,-6.9c0,-2.6 0.5,-4.9 1.5,-6.9s2.4,-3.6 4.2,-4.8c1.8,-1.1 3.7,-1.7 5.9,-1.7c1.5,0 3,0.3 4.3,0.8c1.3,0.6 2.5,1.3 3.4,2.1c0,-0.8 0.3,-1.5 0.8,-2.1c0.5,-0.5 1.2,-0.7 2,-0.7zm-9.7,21.3c2.1,0 3.8,-0.8 5.1,-2.3s2,-3.4 2,-5.7s-0.7,-4.2 -2,-5.8c-1.3,-1.5 -3,-2.3 -5.1,-2.3c-2,0 -3.7,0.8 -5,2.3c-1.3,1.5 -2,3.5 -2,5.8s0.6,4.2 1.9,5.7s3,2.3 5.1,2.3zm32.1,-21.3c2.2,0 4.2,0.6 6,1.7c1.8,1.1 3.2,2.7 4.2,4.7s1.6,4.3 1.6,6.9s-0.5,4.9 -1.5,6.9s-2.4,3.6 -4.2,4.8c-1.8,1.1 -3.7,1.7 -5.9,1.7c-1.5,0 -3,-0.3 -4.3,-0.9s-2.5,-1.4 -3.4,-2.3l0,0.3c0,0.8 -0.3,1.5 -0.8,2.1c-0.5,0.6 -1.2,0.8 -2.1,0.8s-1.5,-0.3 -2.1,-0.8c-0.5,-0.5 -0.8,-1.2 -0.8,-2.1l0,-30.3c0,-0.8 0.3,-1.5 0.8,-2.1c0.5,-0.6 1.2,-0.8 2.1,-0.8s1.5,0.3 2.1,0.8c0.5,0.6 0.8,1.3 0.8,2.1l0,10c0.8,-1 1.8,-1.8 3.2,-2.5c1.3,-0.7 2.8,-1 4.3,-1zm-0.7,21.3c2,0 3.7,-0.8 5,-2.3s2,-3.5 2,-5.8s-0.6,-4.2 -1.9,-5.7s-3,-2.3 -5.1,-2.3s-3.8,0.8 -5.1,2.3s-2,3.4 -2,5.7s0.7,4.2 2,5.8c1.3,1.6 3,2.3 5.1,2.3zm23.6,1.9c0,0.8 -0.3,1.5 -0.8,2.1s-1.3,0.8 -2.1,0.8s-1.5,-0.3 -2,-0.8s-0.8,-1.3 -0.8,-2.1l0,-29.7c0,-0.8 0.3,-1.5 0.8,-2.1s1.3,-0.8 2.1,-0.8s1.5,0.3 2,0.8s0.8,1.3 0.8,2.1l0,29.7zm29.3,-10.5c0,0.8 -0.3,1.4 -0.9,1.9c-0.6,0.5 -1.2,0.7 -2,0.7l-15.8,0c0.4,1.9 1.3,3.4 2.6,4.4c1.4,1.1 2.9,1.6 4.7,1.6c1.3,0 2.3,-0.1 3.1,-0.4c0.7,-0.2 1.3,-0.5 1.8,-0.8c0.4,-0.3 0.7,-0.5 0.9,-0.6c0.6,-0.3 1.1,-0.4 1.6,-0.4c0.7,0 1.2,0.2 1.7,0.7s0.7,1 0.7,1.7c0,0.9 -0.4,1.6 -1.3,2.4c-0.9,0.7 -2.1,1.4 -3.6,1.9s-3,0.8 -4.6,0.8c-2.7,0 -5,-0.6 -7,-1.7s-3.5,-2.7 -4.6,-4.6s-1.6,-4.2 -1.6,-6.6c0,-2.8 0.6,-5.2 1.7,-7.2s2.7,-3.7 4.6,-4.8s3.9,-1.7 6,-1.7s4.1,0.6 6,1.7s3.4,2.7 4.5,4.7c0.9,1.9 1.5,4.1 1.5,6.3zm-12.2,-7.5c-3.7,0 -5.9,1.7 -6.6,5.2l12.6,0l0,-0.3c-0.1,-1.3 -0.8,-2.5 -2,-3.5s-2.5,-1.4 -4,-1.4zm30.3,-5.2c1,0 1.8,0.3 2.4,0.8c0.7,0.5 1,1.2 1,1.9c0,1 -0.3,1.7 -0.8,2.2c-0.5,0.5 -1.1,0.8 -1.8,0.7c-0.5,0 -1,-0.1 -1.6,-0.3c-0.2,-0.1 -0.4,-0.1 -0.6,-0.2c-0.4,-0.1 -0.7,-0.1 -1.1,-0.1c-0.8,0 -1.6,0.3 -2.4,0.8s-1.4,1.3 -1.9,2.3s-0.7,2.3 -0.7,3.7l0,11.4c0,0.8 -0.3,1.5 -0.8,2.1c-0.5,0.6 -1.2,0.8 -2.1,0.8s-1.5,-0.3 -2.1,-0.8c-0.5,-0.6 -0.8,-1.3 -0.8,-2.1l0,-19.8c0,-0.8 0.3,-1.5 0.8,-2.1c0.5,-0.6 1.2,-0.8 2.1,-0.8s1.5,0.3 2.1,0.8c0.5,0.6 0.8,1.3 0.8,2.1l0,0.6c0.7,-1.3 1.8,-2.3 3.2,-3c1.3,-0.7 2.8,-1 4.3,-1z" fill-rule="evenodd" clip-rule="evenodd" fill="#4a4a4a"/>
  </g>
  <text style="cursor: move;" fill="#ffffff" x="47.31743" y="33.25144" id="svg_2" font-size="33" font-family="'Quicksand'" text-anchor="start" xml:space="preserve" font-weight="bold" stroke="#ffffff" transform="matrix(1.03916 0 0 1.03916 -0.453974 0.121529)">Supershell</text>
  <path fill="#4a4a4a" stroke="#000" opacity="NaN" d="m142.5,87" id="svg_4"/>
  <g id="svg_12">
   <g id="svg_13">
    <title>Layer 1</title>
    <g id="svg_14">
     <path id="svg_15" fill="#206bc4" d="m226.1625,137.4375c-1.6,-6.3 -6.5,-11.2 -12.8,-12.8c-11.8,-1.9 -23.8,-1.9 -35.6,0c-6.3,1.6 -11.2,6.5 -12.8,12.8c-1.9,11.8 -1.9,23.8 0,35.6c1.6,6.3 6.5,11.2 12.8,12.8c11.8,1.9 23.8,1.9 35.6,0c6.3,-1.6 11.2,-6.5 12.8,-12.8c1.9,-11.8 1.9,-23.8 0,-35.6zm-31.3,20.1c-2.8,4.4 -6.6,8.2 -11.1,11c-1.5,0.9 -3.3,0.9 -4.8,0.1s-2.4,-2.3 -2.5,-4c0,-1.7 0.9,-3.3 2.4,-4.1c2.3,-1.4 4.4,-3.2 6.1,-5.3c-1.8,-2.1 -3.8,-3.8 -6.1,-5.3c-2.3,-1.3 -3,-4.2 -1.7,-6.4s4.3,-2.9 6.5,-1.6c4.5,2.8 8.2,6.5 11.1,10.9c1,1.4 1,3.3 0.1,4.7zm15.9,9.7l-11.4,0c-2.1,0 -3.8,-1 -3.8,-3s1.7,-3 3.8,-3l11.4,0c2.1,0 3.8,1 3.8,3s-1.7,3 -3.8,3z"/>
     <path id="svg_16" fill="#4a4a4a" clip-rule="evenodd" fill-rule="evenodd" d="m267.3625,167.3375c0.4,0 0.9,0.2 1.2,0.6s0.6,1 0.6,1.7c0,0.9 -0.5,1.6 -1.4,2.2s-2,0.9 -3.2,0.9c-2,0 -3.7,-0.4 -5,-1.3s-2,-2.6 -2,-5.4l0,-13.2l-2.2,0c-0.8,0 -1.4,-0.3 -1.9,-0.8s-0.9,-1.1 -0.9,-1.9c0,-0.7 0.3,-1.4 0.8,-1.8s1.2,-0.7 1.9,-0.7l2.2,0l0,-3.1c0,-0.8 0.3,-1.5 0.8,-2.1s1.3,-0.8 2.1,-0.8s1.5,0.3 2,0.8s0.8,1.3 0.8,2.1l0,3.1l3.4,0c0.8,0 1.4,0.3 1.9,0.8s0.8,1.2 0.8,1.9s-0.3,1.4 -0.8,1.8s-1.2,0.7 -1.9,0.7l-3.4,0l0,13c0,0.7 0.2,1.2 0.5,1.5s0.8,0.5 1.4,0.5c0.3,0 0.6,-0.1 1.1,-0.2c0.5,-0.2 0.8,-0.3 1.2,-0.3zm28,-20.7c0.8,0 1.5,0.3 2.1,0.8c0.5,0.5 0.8,1.2 0.8,2.1l0,20.3c0,0.8 -0.3,1.5 -0.8,2.1c-0.5,0.6 -1.2,0.8 -2.1,0.8s-1.5,-0.3 -2,-0.8s-0.8,-1.2 -0.8,-2.1c-0.8,0.9 -1.9,1.7 -3.2,2.4c-1.3,0.7 -2.8,1 -4.3,1c-2.2,0 -4.2,-0.6 -6,-1.7c-1.8,-1.1 -3.2,-2.7 -4.2,-4.7s-1.6,-4.3 -1.6,-6.9c0,-2.6 0.5,-4.9 1.5,-6.9s2.4,-3.6 4.2,-4.8c1.8,-1.1 3.7,-1.7 5.9,-1.7c1.5,0 3,0.3 4.3,0.8c1.3,0.6 2.5,1.3 3.4,2.1c0,-0.8 0.3,-1.5 0.8,-2.1c0.5,-0.5 1.2,-0.7 2,-0.7zm-9.7,21.3c2.1,0 3.8,-0.8 5.1,-2.3s2,-3.4 2,-5.7s-0.7,-4.2 -2,-5.8c-1.3,-1.5 -3,-2.3 -5.1,-2.3c-2,0 -3.7,0.8 -5,2.3c-1.3,1.5 -2,3.5 -2,5.8s0.6,4.2 1.9,5.7s3,2.3 5.1,2.3zm32.1,-21.3c2.2,0 4.2,0.6 6,1.7c1.8,1.1 3.2,2.7 4.2,4.7s1.6,4.3 1.6,6.9s-0.5,4.9 -1.5,6.9s-2.4,3.6 -4.2,4.8c-1.8,1.1 -3.7,1.7 -5.9,1.7c-1.5,0 -3,-0.3 -4.3,-0.9s-2.5,-1.4 -3.4,-2.3l0,0.3c0,0.8 -0.3,1.5 -0.8,2.1c-0.5,0.6 -1.2,0.8 -2.1,0.8s-1.5,-0.3 -2.1,-0.8c-0.5,-0.5 -0.8,-1.2 -0.8,-2.1l0,-30.3c0,-0.8 0.3,-1.5 0.8,-2.1c0.5,-0.6 1.2,-0.8 2.1,-0.8s1.5,0.3 2.1,0.8c0.5,0.6 0.8,1.3 0.8,2.1l0,10c0.8,-1 1.8,-1.8 3.2,-2.5c1.3,-0.7 2.8,-1 4.3,-1zm-0.7,21.3c2,0 3.7,-0.8 5,-2.3s2,-3.5 2,-5.8s-0.6,-4.2 -1.9,-5.7s-3,-2.3 -5.1,-2.3s-3.8,0.8 -5.1,2.3s-2,3.4 -2,5.7s0.7,4.2 2,5.8c1.3,1.6 3,2.3 5.1,2.3zm23.6,1.9c0,0.8 -0.3,1.5 -0.8,2.1s-1.3,0.8 -2.1,0.8s-1.5,-0.3 -2,-0.8s-0.8,-1.3 -0.8,-2.1l0,-29.7c0,-0.8 0.3,-1.5 0.8,-2.1s1.3,-0.8 2.1,-0.8s1.5,0.3 2,0.8s0.8,1.3 0.8,2.1l0,29.7zm29.3,-10.5c0,0.8 -0.3,1.4 -0.9,1.9c-0.6,0.5 -1.2,0.7 -2,0.7l-15.8,0c0.4,1.9 1.3,3.4 2.6,4.4c1.4,1.1 2.9,1.6 4.7,1.6c1.3,0 2.3,-0.1 3.1,-0.4c0.7,-0.2 1.3,-0.5 1.8,-0.8c0.4,-0.3 0.7,-0.5 0.9,-0.6c0.6,-0.3 1.1,-0.4 1.6,-0.4c0.7,0 1.2,0.2 1.7,0.7s0.7,1 0.7,1.7c0,0.9 -0.4,1.6 -1.3,2.4c-0.9,0.7 -2.1,1.4 -3.6,1.9s-3,0.8 -4.6,0.8c-2.7,0 -5,-0.6 -7,-1.7s-3.5,-2.7 -4.6,-4.6s-1.6,-4.2 -1.6,-6.6c0,-2.8 0.6,-5.2 1.7,-7.2s2.7,-3.7 4.6,-4.8s3.9,-1.7 6,-1.7s4.1,0.6 6,1.7s3.4,2.7 4.5,4.7c0.9,1.9 1.5,4.1 1.5,6.3zm-12.2,-7.5c-3.7,0 -5.9,1.7 -6.6,5.2l12.6,0l0,-0.3c-0.1,-1.3 -0.8,-2.5 -2,-3.5s-2.5,-1.4 -4,-1.4zm30.3,-5.2c1,0 1.8,0.3 2.4,0.8c0.7,0.5 1,1.2 1,1.9c0,1 -0.3,1.7 -0.8,2.2c-0.5,0.5 -1.1,0.8 -1.8,0.7c-0.5,0 -1,-0.1 -1.6,-0.3c-0.2,-0.1 -0.4,-0.1 -0.6,-0.2c-0.4,-0.1 -0.7,-0.1 -1.1,-0.1c-0.8,0 -1.6,0.3 -2.4,0.8s-1.4,1.3 -1.9,2.3s-0.7,2.3 -0.7,3.7l0,11.4c0,0.8 -0.3,1.5 -0.8,2.1c-0.5,0.6 -1.2,0.8 -2.1,0.8s-1.5,-0.3 -2.1,-0.8c-0.5,-0.6 -0.8,-1.3 -0.8,-2.1l0,-19.8c0,-0.8 0.3,-1.5 0.8,-2.1c0.5,-0.6 1.2,-0.8 2.1,-0.8s1.5,0.3 2.1,0.8c0.5,0.6 0.8,1.3 0.8,2.1l0,0.6c0.7,-1.3 1.8,-2.3 3.2,-3c1.3,-0.7 2.8,-1 4.3,-1z"/>
    </g>
    <g id="svg_17">
     <path id="svg_18" fill="#206bc4" d="m-98.83749,140.4375c-1.6,-6.3 -6.5,-11.2 -12.8,-12.8c-11.8,-1.9 -23.8,-1.9 -35.6,0c-6.3,1.6 -11.2,6.5 -12.8,12.8c-1.9,11.8 -1.9,23.8 0,35.6c1.6,6.3 6.5,11.2 12.8,12.8c11.8,1.9 23.8,1.9 35.6,0c6.3,-1.6 11.2,-6.5 12.8,-12.8c1.9,-11.8 1.9,-23.8 0,-35.6zm-31.3,20.1c-2.8,4.4 -6.6,8.2 -11.1,11c-1.5,0.9 -3.3,0.9 -4.8,0.1s-2.4,-2.3 -2.5,-4c0,-1.7 0.9,-3.3 2.4,-4.1c2.3,-1.4 4.4,-3.2 6.1,-5.3c-1.8,-2.1 -3.8,-3.8 -6.1,-5.3c-2.3,-1.3 -3,-4.2 -1.7,-6.4s4.3,-2.9 6.5,-1.6c4.5,2.8 8.2,6.5 11.1,10.9c1,1.4 1,3.3 0.1,4.7zm15.9,9.7l-11.4,0c-2.1,0 -3.8,-1 -3.8,-3s1.7,-3 3.8,-3l11.4,0c2.1,0 3.8,1 3.8,3s-1.7,3 -3.8,3z"/>
     <path id="svg_19" fill="#4a4a4a" clip-rule="evenodd" fill-rule="evenodd" d="m-57.63749,170.3375c0.4,0 0.9,0.2 1.2,0.6s0.6,1 0.6,1.7c0,0.9 -0.5,1.6 -1.4,2.2s-2,0.9 -3.2,0.9c-2,0 -3.7,-0.4 -5,-1.3s-2,-2.6 -2,-5.4l0,-13.2l-2.2,0c-0.8,0 -1.4,-0.3 -1.9,-0.8s-0.9,-1.1 -0.9,-1.9c0,-0.7 0.3,-1.4 0.8,-1.8s1.2,-0.7 1.9,-0.7l2.2,0l0,-3.1c0,-0.8 0.3,-1.5 0.8,-2.1s1.3,-0.8 2.1,-0.8s1.5,0.3 2,0.8s0.8,1.3 0.8,2.1l0,3.1l3.4,0c0.8,0 1.4,0.3 1.9,0.8s0.8,1.2 0.8,1.9s-0.3,1.4 -0.8,1.8s-1.2,0.7 -1.9,0.7l-3.4,0l0,13c0,0.7 0.2,1.2 0.5,1.5s0.8,0.5 1.4,0.5c0.3,0 0.6,-0.1 1.1,-0.2c0.5,-0.2 0.8,-0.3 1.2,-0.3zm28,-20.7c0.8,0 1.5,0.3 2.1,0.8c0.5,0.5 0.8,1.2 0.8,2.1l0,20.3c0,0.8 -0.3,1.5 -0.8,2.1c-0.5,0.6 -1.2,0.8 -2.1,0.8s-1.5,-0.3 -2,-0.8s-0.8,-1.2 -0.8,-2.1c-0.8,0.9 -1.9,1.7 -3.2,2.4c-1.3,0.7 -2.8,1 -4.3,1c-2.2,0 -4.2,-0.6 -6,-1.7c-1.8,-1.1 -3.2,-2.7 -4.2,-4.7s-1.6,-4.3 -1.6,-6.9c0,-2.6 0.5,-4.9 1.5,-6.9s2.4,-3.6 4.2,-4.8c1.8,-1.1 3.7,-1.7 5.9,-1.7c1.5,0 3,0.3 4.3,0.8c1.3,0.6 2.5,1.3 3.4,2.1c0,-0.8 0.3,-1.5 0.8,-2.1c0.5,-0.5 1.2,-0.7 2,-0.7zm-9.7,21.3c2.1,0 3.8,-0.8 5.1,-2.3s2,-3.4 2,-5.7s-0.7,-4.2 -2,-5.8c-1.3,-1.5 -3,-2.3 -5.1,-2.3c-2,0 -3.7,0.8 -5,2.3c-1.3,1.5 -2,3.5 -2,5.8s0.6,4.2 1.9,5.7s3,2.3 5.1,2.3zm32.1,-21.3c2.2,0 4.2,0.6 6,1.7c1.8,1.1 3.2,2.7 4.2,4.7s1.6,4.3 1.6,6.9s-0.5,4.9 -1.5,6.9s-2.4,3.6 -4.2,4.8c-1.8,1.1 -3.7,1.7 -5.9,1.7c-1.5,0 -3,-0.3 -4.3,-0.9s-2.5,-1.4 -3.4,-2.3l0,0.3c0,0.8 -0.3,1.5 -0.8,2.1c-0.5,0.6 -1.2,0.8 -2.1,0.8s-1.5,-0.3 -2.1,-0.8c-0.5,-0.5 -0.8,-1.2 -0.8,-2.1l0,-30.3c0,-0.8 0.3,-1.5 0.8,-2.1c0.5,-0.6 1.2,-0.8 2.1,-0.8s1.5,0.3 2.1,0.8c0.5,0.6 0.8,1.3 0.8,2.1l0,10c0.8,-1 1.8,-1.8 3.2,-2.5c1.3,-0.7 2.8,-1 4.3,-1zm-0.7,21.3c2,0 3.7,-0.8 5,-2.3s2,-3.5 2,-5.8s-0.6,-4.2 -1.9,-5.7s-3,-2.3 -5.1,-2.3s-3.8,0.8 -5.1,2.3s-2,3.4 -2,5.7s0.7,4.2 2,5.8c1.3,1.6 3,2.3 5.1,2.3zm23.6,1.9c0,0.8 -0.3,1.5 -0.8,2.1s-1.3,0.8 -2.1,0.8s-1.5,-0.3 -2,-0.8s-0.8,-1.3 -0.8,-2.1l0,-29.7c0,-0.8 0.3,-1.5 0.8,-2.1s1.3,-0.8 2.1,-0.8s1.5,0.3 2,0.8s0.8,1.3 0.8,2.1l0,29.7zm29.3,-10.5c0,0.8 -0.3,1.4 -0.9,1.9c-0.6,0.5 -1.2,0.7 -2,0.7l-15.8,0c0.4,1.9 1.3,3.4 2.6,4.4c1.4,1.1 2.9,1.6 4.7,1.6c1.3,0 2.3,-0.1 3.1,-0.4c0.7,-0.2 1.3,-0.5 1.8,-0.8c0.4,-0.3 0.7,-0.5 0.9,-0.6c0.6,-0.3 1.1,-0.4 1.6,-0.4c0.7,0 1.2,0.2 1.7,0.7s0.7,1 0.7,1.7c0,0.9 -0.4,1.6 -1.3,2.4c-0.9,0.7 -2.1,1.4 -3.6,1.9s-3,0.8 -4.6,0.8c-2.7,0 -5,-0.6 -7,-1.7s-3.5,-2.7 -4.6,-4.6s-1.6,-4.2 -1.6,-6.6c0,-2.8 0.6,-5.2 1.7,-7.2s2.7,-3.7 4.6,-4.8s3.9,-1.7 6,-1.7s4.1,0.6 6,1.7s3.4,2.7 4.5,4.7c0.9,1.9 1.5,4.1 1.5,6.3zm-12.2,-7.5c-3.7,0 -5.9,1.7 -6.6,5.2l12.6,0l0,-0.3c-0.1,-1.3 -0.8,-2.5 -2,-3.5s-2.5,-1.4 -4,-1.4zm30.3,-5.2c1,0 1.8,0.3 2.4,0.8c0.7,0.5 1,1.2 1,1.9c0,1 -0.3,1.7 -0.8,2.2c-0.5,0.5 -1.1,0.8 -1.8,0.7c-0.5,0 -1,-0.1 -1.6,-0.3c-0.2,-0.1 -0.4,-0.1 -0.6,-0.2c-0.4,-0.1 -0.7,-0.1 -1.1,-0.1c-0.8,0 -1.6,0.3 -2.4,0.8s-1.4,1.3 -1.9,2.3s-0.7,2.3 -0.7,3.7l0,11.4c0,0.8 -0.3,1.5 -0.8,2.1c-0.5,0.6 -1.2,0.8 -2.1,0.8s-1.5,-0.3 -2.1,-0.8c-0.5,-0.6 -0.8,-1.3 -0.8,-2.1l0,-19.8c0,-0.8 0.3,-1.5 0.8,-2.1c0.5,-0.6 1.2,-0.8 2.1,-0.8s1.5,0.3 2.1,0.8c0.5,0.6 0.8,1.3 0.8,2.1l0,0.6c0.7,-1.3 1.8,-2.3 3.2,-3c1.3,-0.7 2.8,-1 4.3,-1z"/>
    </g>
    <g id="svg_20" stroke="null">
     <path id="svg_21" stroke="null" data-spm-anchor-id="a313x.7781069.0.i80" p-id="80845" fill="#E96479" d="m-154.21429,-140.2625a6.28571,6.28571 0 0 0 -6.28571,6.28571l0,31.42857a6.28571,6.28571 0 0 0 6.28571,6.28571l31.42857,0a6.28571,6.28571 0 0 0 6.28571,-6.28571l0,-31.42857a6.28571,6.28571 0 0 0 -6.28571,-6.28571l-31.42857,0zm5.21714,31.18971a0.44,0.44 0 0 1 -0.72286,-0.33314l0,-3.45086c0,-0.12571 0.06286,-0.25143 0.15714,-0.33629l6.04371,-5.06943l-6.04057,-5.07257a0.418,0.418 0 0 1 -0.15714,-0.33314l0,-3.45086a0.44,0.44 0 0 1 0.71657,-0.33314l10.56,8.85029a0.43686,0.43686 0 0 1 0,0.67571l-10.55686,8.85343l0.00001,0zm21.30543,0.10686l-10.17971,0c-0.22314,0 -0.40857,-0.198 -0.40857,-0.44l0,-2.64c0,-0.24514 0.18543,-0.44 0.40857,-0.44l10.17657,0c0.22629,0 0.41171,0.198 0.41171,0.44l0,2.64c0,0.242 -0.18857,0.44 -0.41171,0.44l0.00314,0z"/>
    </g>
    <text font-weight="bold" xml:space="preserve" text-anchor="start" font-family="'Quicksand'" font-size="33" id="svg_5" y="-106.2625" x="-108" stroke="#000" fill="#000000">Supershell</text>
   </g>
  </g>
  <path id="svg_22" d="m137.5,34" opacity="NaN" stroke="#000" fill="#fff"/>
  <g stroke="null">
   <path stroke="null" class="selected" data-spm-anchor-id="a313x.7781069.0.i0" p-id="4423" fill="#ffffff" d="m6.7167,3.82083a5.2347,5.2347 0 0 0 -5.2347,5.2347l0,26.17351a5.2347,5.2347 0 0 0 5.2347,5.2347l26.17351,0a5.2347,5.2347 0 0 0 5.2347,-5.2347l0,-26.17351a5.2347,5.2347 0 0 0 -5.2347,-5.2347l-26.17351,0zm4.3448,25.97459a0.36643,0.36643 0 0 1 -0.60199,-0.27744l0,-2.87385c0,-0.10469 0.05235,-0.20939 0.13087,-0.28006l5.03317,-4.22179l-5.03055,-4.2244a0.34811,0.34811 0 0 1 -0.13087,-0.27744l0,-2.87385a0.36643,0.36643 0 0 1 0.59676,-0.27744l8.7943,7.37046a0.36381,0.36381 0 0 1 0,0.56273l-8.79168,7.37308zm17.74302,0.08899l-8.4776,0c-0.18583,0 -0.34026,-0.16489 -0.34026,-0.36643l0,-2.19857c0,-0.20415 0.15442,-0.36643 0.34026,-0.36643l8.47498,0c0.18845,0 0.34287,0.16489 0.34287,0.36643l0,2.19857c0,0.20154 -0.15704,0.36643 -0.34287,0.36643l0.00262,0z"/>
  </g>
 </g>

</svg>