<?xml version="1.0" standalone="no"?><!DOCTYPE svg PUBLIC "-//W3C//DTD SVG 1.1//EN" "http://www.w3.org/Graphics/SVG/1.1/DTD/svg11.dtd"><svg t="1677760829914" class="icon" viewBox="0 0 1024 1024" version="1.1" xmlns="http://www.w3.org/2000/svg" p-id="5795" width="16" height="16" xmlns:xlink="http://www.w3.org/1999/xlink"><path d="M384 288V85.333333h213.333333v149.333334a21.333333 21.333333 0 0 0 42.666667 0V85.333333h42.666667v202.666667a10.666667 10.666667 0 0 1-10.666667 10.666667H394.666667a10.666667 10.666667 0 0 1-10.666667-10.666667z m330.666667 266.666667H309.333333a10.666667 10.666667 0 0 0-10.666666 10.666666v373.333334h426.666666V565.333333a10.666667 10.666667 0 0 0-10.666666-10.666666z m208.38-301.793334l-151.92-151.92a52.986667 52.986667 0 0 0-37.713334-15.62H725.333333v202.666667a53.393333 53.393333 0 0 1-53.333333 53.333333H394.666667a53.393333 53.393333 0 0 1-53.333334-53.333333V85.333333H138.666667a53.393333 53.393333 0 0 0-53.333334 53.333334v746.666666a53.393333 53.393333 0 0 0 53.333334 53.333334h117.333333V565.333333a53.393333 53.393333 0 0 1 53.333333-53.333333h405.333334a53.393333 53.393333 0 0 1 53.333333 53.333333v373.333334h117.333333a53.393333 53.393333 0 0 0 53.333334-53.333334V290.586667a52.986667 52.986667 0 0 0-15.62-37.713334z" fill="#5C5C66" p-id="5796"></path></svg>