<?xml version="1.0" standalone="no"?><!DOCTYPE svg PUBLIC "-//W3C//DTD SVG 1.1//EN" "http://www.w3.org/Graphics/SVG/1.1/DTD/svg11.dtd"><svg t="1677763201448" class="icon" viewBox="0 0 1024 1024" version="1.1" xmlns="http://www.w3.org/2000/svg" p-id="2861" width="16" height="16" xmlns:xlink="http://www.w3.org/1999/xlink"><path d="M512 736v-160a32 32 0 0 1 32-32h160V288H320v448h192z m64-13.248L690.752 608H576v114.752zM288 224h448a32 32 0 0 1 32 32v352a32 32 0 0 1-9.376 22.624l-160 160A32 32 0 0 1 576 800H288a32 32 0 0 1-32-32V256a32 32 0 0 1 32-32z" fill="#202425" p-id="2862"></path></svg>