<?xml version="1.0" standalone="no"?><!DOCTYPE svg PUBLIC "-//W3C//DTD SVG 1.1//EN" "http://www.w3.org/Graphics/SVG/1.1/DTD/svg11.dtd"><svg t="1677763242583" class="icon" viewBox="0 0 1260 1024" version="1.1" xmlns="http://www.w3.org/2000/svg" p-id="3330" xmlns:xlink="http://www.w3.org/1999/xlink" width="19.6875" height="16"><path d="M1181.855034 394.251483V246.013518A88.311979 88.311979 0 0 0 1093.017389 157.701539h-490.97255l-31.014326-95.67131A88.311979 88.311979 0 0 0 486.923866 0.001577H88.994294A88.311979 88.311979 0 0 0 0.156649 88.839223V935.688021a88.311979 88.311979 0 0 0 0 10.513331v14.718663a87.786312 87.786312 0 0 0 26.808993 37.847991h5.782332a87.260646 87.260646 0 0 0 39.950658 14.718663h986.150432A88.837646 88.837646 0 0 0 1145.058376 946.201352l113.018307-453.124559a88.837646 88.837646 0 0 0-76.221649-98.82531zM88.994294 88.839223h397.403906l52.566654 157.699962h554.052535v147.186632h-893.633121A88.837646 88.837646 0 0 0 115.803288 461.011134l-27.33466 109.338641z" fill="#FFCF5C" p-id="3331" data-spm-anchor-id="a313x.7781069.0.i6" class="selected"></path></svg>