<?xml version="1.0" standalone="no"?><!DOCTYPE svg PUBLIC "-//W3C//DTD SVG 1.1//EN" "http://www.w3.org/Graphics/SVG/1.1/DTD/svg11.dtd"><svg t="1677421419478" class="icon" viewBox="0 0 1208 1024" version="1.1" xmlns="http://www.w3.org/2000/svg" p-id="7743" width="18.875" height="16" xmlns:xlink="http://www.w3.org/1999/xlink"><path d="M132.516 120.474h879.437c33.27 0 60.236 26.967 60.236 60.231v409.6c0 33.27-26.967 60.237-60.236 60.237H132.516c-33.265 0-60.232-26.967-60.232-60.237v-409.6c0-33.264 26.967-60.237 60.232-60.237z" fill="#F9B552" p-id="7744"></path><path d="M469.837 0c73.185 0 132.516 59.33 132.516 132.516v84.326h469.836c73.186 0 132.516 59.336 132.516 132.521v542.121c0 73.185-59.33 132.516-132.516 132.516H132.516A132.516 132.516 0 0 1 0 891.484v-542.12c0-4.035 0.18-8.07 0.543-12.048A134.257 134.257 0 0 1 0 325.274V132.516C0 59.33 59.33 0 132.516 0h337.32z" fill="#FFCF5C" p-id="7745"></path></svg>